<mxfile host="app.diagrams.net" modified="2023-11-28T10:13:04.481Z" agent="Mozilla/5.0 (Macintosh; Intel Mac OS X 10_15_7) AppleWebKit/537.36 (KHTML, like Gecko) Chrome/119.0.0.0 Safari/537.36" etag="NClWXwSHZn3XvV76ySjl" version="22.1.4" type="github">
  <diagram name="Page-1" id="kcwHlQj6X_Hl7SKp6POg">
    <mxGraphModel dx="2195" dy="2084" grid="1" gridSize="10" guides="1" tooltips="1" connect="1" arrows="1" fold="1" page="1" pageScale="1" pageWidth="827" pageHeight="1169" math="0" shadow="0">
      <root>
        <mxCell id="0" />
        <mxCell id="1" parent="0" />
        <mxCell id="6_SXSchUUHbL2NSbWVZx-7" value="" style="rounded=0;whiteSpace=wrap;html=1;fillColor=#f5f5f5;strokeColor=#666666;gradientColor=#b3b3b3;" parent="1" vertex="1">
          <mxGeometry x="-380" y="300" width="210" height="380" as="geometry" />
        </mxCell>
        <mxCell id="6_SXSchUUHbL2NSbWVZx-4" value="" style="rounded=0;whiteSpace=wrap;html=1;fillColor=#ffe6cc;strokeColor=#d79b00;" parent="1" vertex="1">
          <mxGeometry x="-150" y="300" width="400" height="380" as="geometry" />
        </mxCell>
        <mxCell id="6_SXSchUUHbL2NSbWVZx-2" value="" style="rounded=0;whiteSpace=wrap;html=1;fillColor=#d5e8d4;strokeColor=#82b366;" parent="1" vertex="1">
          <mxGeometry x="270" y="300" width="630" height="380" as="geometry" />
        </mxCell>
        <mxCell id="zjfV1j-Sg47yWd-0FWZn-2" value="&lt;font size=&quot;1&quot; style=&quot;&quot;&gt;&lt;b style=&quot;font-size: 16px;&quot;&gt;NetworkPriorityDispatcher&lt;/b&gt;&lt;/font&gt;" style="rounded=0;whiteSpace=wrap;html=1;fillColor=#0050ef;strokeColor=#001DBC;fontColor=#ffffff;" parent="1" vertex="1">
          <mxGeometry x="-110" y="20" width="310" height="60" as="geometry" />
        </mxCell>
        <mxCell id="zjfV1j-Sg47yWd-0FWZn-3" value="&lt;font size=&quot;1&quot; style=&quot;&quot;&gt;&lt;b style=&quot;font-size: 16px;&quot;&gt;NetworkBuilder&lt;/b&gt;&lt;/font&gt;" style="rounded=0;whiteSpace=wrap;html=1;fillColor=#60a917;strokeColor=#2D7600;fontColor=#ffffff;" parent="1" vertex="1">
          <mxGeometry x="-380" y="220" width="900" height="60" as="geometry" />
        </mxCell>
        <mxCell id="zjfV1j-Sg47yWd-0FWZn-4" value="&lt;font style=&quot;font-size: 16px;&quot;&gt;&lt;b&gt;NetworkMocker&lt;/b&gt;&lt;/font&gt;" style="rounded=0;whiteSpace=wrap;html=1;" parent="1" vertex="1">
          <mxGeometry x="-60" y="320" width="210" height="60" as="geometry" />
        </mxCell>
        <mxCell id="zjfV1j-Sg47yWd-0FWZn-5" value="&lt;font style=&quot;font-size: 16px;&quot;&gt;&lt;b&gt;NetworkRouter&lt;/b&gt;&lt;/font&gt;" style="rounded=0;whiteSpace=wrap;html=1;" parent="1" vertex="1">
          <mxGeometry x="310" y="320" width="210" height="60" as="geometry" />
        </mxCell>
        <mxCell id="zjfV1j-Sg47yWd-0FWZn-6" value="&lt;font style=&quot;font-size: 16px;&quot;&gt;&lt;b&gt;URLSession&lt;/b&gt;&lt;/font&gt;" style="rounded=0;whiteSpace=wrap;html=1;" parent="1" vertex="1">
          <mxGeometry x="310" y="510" width="210" height="60" as="geometry" />
        </mxCell>
        <mxCell id="zjfV1j-Sg47yWd-0FWZn-7" value="&lt;font style=&quot;font-size: 16px;&quot;&gt;&lt;b&gt;NetworkBuilderSettings&lt;/b&gt;&lt;/font&gt;" style="rounded=0;whiteSpace=wrap;html=1;fillColor=#d80073;strokeColor=#A50040;fontColor=#ffffff;" parent="1" vertex="1">
          <mxGeometry x="560" y="220" width="280" height="60" as="geometry" />
        </mxCell>
        <mxCell id="zjfV1j-Sg47yWd-0FWZn-8" value="&lt;font style=&quot;font-size: 16px;&quot;&gt;&lt;b&gt;NetworkSessionExecutor&lt;/b&gt;&lt;/font&gt;" style="rounded=0;whiteSpace=wrap;html=1;" parent="1" vertex="1">
          <mxGeometry x="310" y="410" width="210" height="60" as="geometry" />
        </mxCell>
        <mxCell id="zjfV1j-Sg47yWd-0FWZn-9" value="&lt;font style=&quot;font-size: 16px;&quot;&gt;&lt;b&gt;SessionProxyDelegate&lt;br&gt;(URLSessionDataDelegate)&lt;/b&gt;&lt;/font&gt;" style="rounded=0;whiteSpace=wrap;html=1;" parent="1" vertex="1">
          <mxGeometry x="560" y="410" width="270" height="60" as="geometry" />
        </mxCell>
        <mxCell id="zjfV1j-Sg47yWd-0FWZn-10" value="&lt;font style=&quot;font-size: 17px;&quot;&gt;&lt;b&gt;MetricsCollector&lt;/b&gt;&lt;/font&gt;" style="rounded=0;whiteSpace=wrap;html=1;" parent="1" vertex="1">
          <mxGeometry x="540" y="510" width="150" height="60" as="geometry" />
        </mxCell>
        <mxCell id="zjfV1j-Sg47yWd-0FWZn-11" value="&lt;font style=&quot;font-size: 16px;&quot;&gt;&lt;b&gt;SSLPinningProcessor&lt;/b&gt;&lt;/font&gt;" style="rounded=0;whiteSpace=wrap;html=1;" parent="1" vertex="1">
          <mxGeometry x="706.5" y="510" width="168.25" height="60" as="geometry" />
        </mxCell>
        <mxCell id="zjfV1j-Sg47yWd-0FWZn-12" value="&lt;font style=&quot;font-size: 16px;&quot;&gt;&lt;b&gt;URLSessionTask&lt;/b&gt;&lt;/font&gt;" style="rounded=0;whiteSpace=wrap;html=1;" parent="1" vertex="1">
          <mxGeometry x="310" y="600" width="370" height="60" as="geometry" />
        </mxCell>
        <mxCell id="zjfV1j-Sg47yWd-0FWZn-13" value="&lt;font style=&quot;font-size: 16px;&quot;&gt;&lt;b&gt;URLAuthentication&lt;br&gt;Challenge&lt;/b&gt;&lt;/font&gt;" style="rounded=0;whiteSpace=wrap;html=1;" parent="1" vertex="1">
          <mxGeometry x="707.56" y="600" width="166.12" height="60" as="geometry" />
        </mxCell>
        <mxCell id="zjfV1j-Sg47yWd-0FWZn-14" value="&lt;font style=&quot;font-size: 16px;&quot;&gt;&lt;b&gt;NetworkMockHandler&lt;/b&gt;&lt;/font&gt;" style="rounded=0;whiteSpace=wrap;html=1;" parent="1" vertex="1">
          <mxGeometry x="-60" y="420" width="210" height="60" as="geometry" />
        </mxCell>
        <mxCell id="zjfV1j-Sg47yWd-0FWZn-15" value="&lt;font style=&quot;&quot;&gt;&lt;b&gt;&lt;font style=&quot;font-size: 16px;&quot;&gt;Custom&lt;/font&gt;&lt;br&gt;&lt;font style=&quot;font-size: 16px;&quot;&gt;EndpointExpectation&lt;/font&gt;&lt;/b&gt;&lt;/font&gt;" style="rounded=0;whiteSpace=wrap;html=1;" parent="1" vertex="1">
          <mxGeometry x="40" y="510" width="200" height="60" as="geometry" />
        </mxCell>
        <mxCell id="zjfV1j-Sg47yWd-0FWZn-16" value="&lt;font style=&quot;font-size: 16px;&quot;&gt;&lt;b&gt;LocalStorage&lt;br&gt;Service&lt;br&gt;&lt;/b&gt;&lt;/font&gt;" style="rounded=0;whiteSpace=wrap;html=1;" parent="1" vertex="1">
          <mxGeometry x="-140" y="510" width="170" height="60" as="geometry" />
        </mxCell>
        <mxCell id="zjfV1j-Sg47yWd-0FWZn-17" value="&lt;font style=&quot;font-size: 16px;&quot;&gt;&lt;b&gt;FileManager&lt;/b&gt;&lt;/font&gt;" style="rounded=0;whiteSpace=wrap;html=1;" parent="1" vertex="1">
          <mxGeometry x="-140" y="600" width="170" height="60" as="geometry" />
        </mxCell>
        <mxCell id="zjfV1j-Sg47yWd-0FWZn-18" value="&lt;font style=&quot;font-size: 16px;&quot;&gt;&lt;b&gt;Client provide expectation&lt;/b&gt;&lt;/font&gt;" style="rounded=0;whiteSpace=wrap;html=1;" parent="1" vertex="1">
          <mxGeometry x="40" y="600" width="200" height="60" as="geometry" />
        </mxCell>
        <mxCell id="zjfV1j-Sg47yWd-0FWZn-19" value="&lt;font color=&quot;#ffffff&quot; size=&quot;1&quot; style=&quot;&quot;&gt;&lt;b style=&quot;font-size: 16px;&quot;&gt;PriorityAction Filer&lt;/b&gt;&lt;/font&gt;" style="rounded=0;whiteSpace=wrap;html=1;fillColor=#fa6800;strokeColor=#C73500;fontColor=#000000;" parent="1" vertex="1">
          <mxGeometry x="-107.5" y="120" width="307.5" height="60" as="geometry" />
        </mxCell>
        <mxCell id="zjfV1j-Sg47yWd-0FWZn-23" style="edgeStyle=orthogonalEdgeStyle;rounded=0;orthogonalLoop=1;jettySize=auto;html=1;exitX=0.5;exitY=1;exitDx=0;exitDy=0;" parent="1" edge="1">
          <mxGeometry relative="1" as="geometry">
            <mxPoint x="995" y="-10" as="sourcePoint" />
            <mxPoint x="995" y="-10" as="targetPoint" />
          </mxGeometry>
        </mxCell>
        <mxCell id="zjfV1j-Sg47yWd-0FWZn-29" value="" style="rounded=0;whiteSpace=wrap;html=1;fillColor=#ffcccc;strokeColor=#36393d;" parent="1" vertex="1">
          <mxGeometry x="920" y="10" width="400" height="660" as="geometry" />
        </mxCell>
        <mxCell id="zjfV1j-Sg47yWd-0FWZn-31" value="&lt;font style=&quot;font-size: 16px;&quot;&gt;&lt;b&gt;NetworkReachability&lt;/b&gt;&lt;/font&gt;" style="rounded=0;whiteSpace=wrap;html=1;" parent="1" vertex="1">
          <mxGeometry x="930" y="170" width="210" height="60" as="geometry" />
        </mxCell>
        <mxCell id="zjfV1j-Sg47yWd-0FWZn-32" value="&lt;font style=&quot;font-size: 16px;&quot;&gt;&lt;b&gt;ObservationQueue&lt;/b&gt;&lt;/font&gt;" style="rounded=0;whiteSpace=wrap;html=1;" parent="1" vertex="1">
          <mxGeometry x="930" y="310" width="210" height="60" as="geometry" />
        </mxCell>
        <mxCell id="zjfV1j-Sg47yWd-0FWZn-33" value="&lt;font style=&quot;font-size: 16px;&quot;&gt;&lt;b&gt;ExecutionQueue&lt;/b&gt;&lt;/font&gt;" style="rounded=0;whiteSpace=wrap;html=1;" parent="1" vertex="1">
          <mxGeometry x="930" y="240" width="210" height="60" as="geometry" />
        </mxCell>
        <mxCell id="zjfV1j-Sg47yWd-0FWZn-34" value="&lt;b&gt;&lt;font style=&quot;font-size: 16px;&quot;&gt;SessionConfiguration&lt;/font&gt;&lt;/b&gt;" style="rounded=0;whiteSpace=wrap;html=1;" parent="1" vertex="1">
          <mxGeometry x="930" y="380" width="210" height="60" as="geometry" />
        </mxCell>
        <mxCell id="zjfV1j-Sg47yWd-0FWZn-35" value="&lt;font style=&quot;font-size: 16px;&quot;&gt;&lt;b&gt;AutomationMode&lt;/b&gt;&lt;/font&gt;" style="rounded=0;whiteSpace=wrap;html=1;" parent="1" vertex="1">
          <mxGeometry x="930" y="450" width="210" height="60" as="geometry" />
        </mxCell>
        <mxCell id="zjfV1j-Sg47yWd-0FWZn-36" value="&lt;font style=&quot;font-size: 16px;&quot;&gt;&lt;b&gt;RecordResponseMode&lt;/b&gt;&lt;/font&gt;" style="rounded=0;whiteSpace=wrap;html=1;" parent="1" vertex="1">
          <mxGeometry x="930" y="525" width="210" height="60" as="geometry" />
        </mxCell>
        <mxCell id="zjfV1j-Sg47yWd-0FWZn-37" value="&lt;font style=&quot;font-size: 16px;&quot;&gt;&lt;b&gt;LogStrategy&lt;/b&gt;&lt;/font&gt;" style="rounded=0;whiteSpace=wrap;html=1;" parent="1" vertex="1">
          <mxGeometry x="930" y="600" width="210" height="60" as="geometry" />
        </mxCell>
        <mxCell id="zjfV1j-Sg47yWd-0FWZn-40" value="&lt;font style=&quot;font-size: 16px;&quot;&gt;&lt;b&gt;ReportMetricStrategy&lt;/b&gt;&lt;/font&gt;" style="rounded=0;whiteSpace=wrap;html=1;" parent="1" vertex="1">
          <mxGeometry x="930" y="100" width="210" height="60" as="geometry" />
        </mxCell>
        <mxCell id="zjfV1j-Sg47yWd-0FWZn-41" value="&lt;font style=&quot;font-size: 16px;&quot;&gt;&lt;b&gt;SSLPinningPolicy&lt;/b&gt;&lt;/font&gt;" style="rounded=0;whiteSpace=wrap;html=1;" parent="1" vertex="1">
          <mxGeometry x="930" y="30" width="210" height="60" as="geometry" />
        </mxCell>
        <mxCell id="zjfV1j-Sg47yWd-0FWZn-42" value="" style="endArrow=classic;html=1;rounded=0;exitX=0.496;exitY=1.001;exitDx=0;exitDy=0;strokeWidth=2;entryX=0.492;entryY=-0.006;entryDx=0;entryDy=0;entryPerimeter=0;exitPerimeter=0;" parent="1" source="zjfV1j-Sg47yWd-0FWZn-2" target="zjfV1j-Sg47yWd-0FWZn-19" edge="1">
          <mxGeometry width="50" height="50" relative="1" as="geometry">
            <mxPoint x="270" y="370" as="sourcePoint" />
            <mxPoint x="320" y="320" as="targetPoint" />
          </mxGeometry>
        </mxCell>
        <mxCell id="zjfV1j-Sg47yWd-0FWZn-43" value="" style="endArrow=classic;html=1;rounded=0;exitX=0.493;exitY=1.001;exitDx=0;exitDy=0;strokeWidth=2;entryX=0.471;entryY=0.001;entryDx=0;entryDy=0;entryPerimeter=0;exitPerimeter=0;" parent="1" source="zjfV1j-Sg47yWd-0FWZn-19" target="zjfV1j-Sg47yWd-0FWZn-3" edge="1">
          <mxGeometry width="50" height="50" relative="1" as="geometry">
            <mxPoint x="270" y="370" as="sourcePoint" />
            <mxPoint x="320" y="320" as="targetPoint" />
          </mxGeometry>
        </mxCell>
        <mxCell id="zjfV1j-Sg47yWd-0FWZn-44" value="" style="endArrow=classic;html=1;rounded=0;entryX=0.5;entryY=0;entryDx=0;entryDy=0;exitX=0.472;exitY=0.982;exitDx=0;exitDy=0;exitPerimeter=0;strokeWidth=2;" parent="1" source="zjfV1j-Sg47yWd-0FWZn-3" target="zjfV1j-Sg47yWd-0FWZn-4" edge="1">
          <mxGeometry width="50" height="50" relative="1" as="geometry">
            <mxPoint x="250" y="420" as="sourcePoint" />
            <mxPoint x="300" y="370" as="targetPoint" />
          </mxGeometry>
        </mxCell>
        <mxCell id="zjfV1j-Sg47yWd-0FWZn-45" value="" style="endArrow=classic;html=1;rounded=0;exitX=0.5;exitY=1;exitDx=0;exitDy=0;entryX=0.5;entryY=0;entryDx=0;entryDy=0;strokeWidth=2;" parent="1" source="zjfV1j-Sg47yWd-0FWZn-4" target="zjfV1j-Sg47yWd-0FWZn-14" edge="1">
          <mxGeometry width="50" height="50" relative="1" as="geometry">
            <mxPoint x="570" y="430" as="sourcePoint" />
            <mxPoint x="620" y="380" as="targetPoint" />
          </mxGeometry>
        </mxCell>
        <mxCell id="zjfV1j-Sg47yWd-0FWZn-46" value="" style="endArrow=classic;html=1;rounded=0;entryX=0.5;entryY=0;entryDx=0;entryDy=0;strokeWidth=2;" parent="1" target="zjfV1j-Sg47yWd-0FWZn-16" edge="1">
          <mxGeometry width="50" height="50" relative="1" as="geometry">
            <mxPoint x="45" y="480" as="sourcePoint" />
            <mxPoint x="20" y="420" as="targetPoint" />
          </mxGeometry>
        </mxCell>
        <mxCell id="zjfV1j-Sg47yWd-0FWZn-47" value="" style="endArrow=classic;html=1;rounded=0;entryX=0.5;entryY=0;entryDx=0;entryDy=0;exitX=0.5;exitY=1;exitDx=0;exitDy=0;strokeWidth=2;" parent="1" source="zjfV1j-Sg47yWd-0FWZn-14" target="zjfV1j-Sg47yWd-0FWZn-15" edge="1">
          <mxGeometry width="50" height="50" relative="1" as="geometry">
            <mxPoint x="-60" y="480" as="sourcePoint" />
            <mxPoint x="-10" y="430" as="targetPoint" />
          </mxGeometry>
        </mxCell>
        <mxCell id="zjfV1j-Sg47yWd-0FWZn-48" value="" style="endArrow=classic;html=1;rounded=0;exitX=0.5;exitY=1;exitDx=0;exitDy=0;strokeWidth=2;" parent="1" source="zjfV1j-Sg47yWd-0FWZn-16" target="zjfV1j-Sg47yWd-0FWZn-17" edge="1">
          <mxGeometry width="50" height="50" relative="1" as="geometry">
            <mxPoint x="20" y="480" as="sourcePoint" />
            <mxPoint x="70" y="430" as="targetPoint" />
          </mxGeometry>
        </mxCell>
        <mxCell id="zjfV1j-Sg47yWd-0FWZn-49" value="" style="endArrow=classic;html=1;rounded=0;entryX=0.5;entryY=0;entryDx=0;entryDy=0;exitX=0.5;exitY=1;exitDx=0;exitDy=0;strokeWidth=2;" parent="1" source="zjfV1j-Sg47yWd-0FWZn-15" target="zjfV1j-Sg47yWd-0FWZn-18" edge="1">
          <mxGeometry width="50" height="50" relative="1" as="geometry">
            <mxPoint x="110" y="640" as="sourcePoint" />
            <mxPoint x="160" y="590" as="targetPoint" />
          </mxGeometry>
        </mxCell>
        <mxCell id="zjfV1j-Sg47yWd-0FWZn-52" value="" style="endArrow=classic;html=1;rounded=0;exitX=0.5;exitY=1;exitDx=0;exitDy=0;entryX=0.5;entryY=0;entryDx=0;entryDy=0;strokeWidth=2;" parent="1" source="zjfV1j-Sg47yWd-0FWZn-5" target="zjfV1j-Sg47yWd-0FWZn-8" edge="1">
          <mxGeometry width="50" height="50" relative="1" as="geometry">
            <mxPoint x="400" y="420" as="sourcePoint" />
            <mxPoint x="450" y="370" as="targetPoint" />
          </mxGeometry>
        </mxCell>
        <mxCell id="zjfV1j-Sg47yWd-0FWZn-53" value="" style="endArrow=classic;html=1;rounded=0;exitX=0.5;exitY=1;exitDx=0;exitDy=0;entryX=0.5;entryY=0;entryDx=0;entryDy=0;strokeWidth=2;" parent="1" source="zjfV1j-Sg47yWd-0FWZn-8" target="zjfV1j-Sg47yWd-0FWZn-6" edge="1">
          <mxGeometry width="50" height="50" relative="1" as="geometry">
            <mxPoint x="400" y="530" as="sourcePoint" />
            <mxPoint x="450" y="480" as="targetPoint" />
          </mxGeometry>
        </mxCell>
        <mxCell id="zjfV1j-Sg47yWd-0FWZn-54" value="" style="endArrow=classic;html=1;rounded=0;exitX=0.5;exitY=1;exitDx=0;exitDy=0;entryX=0.284;entryY=0.004;entryDx=0;entryDy=0;entryPerimeter=0;strokeWidth=2;" parent="1" source="zjfV1j-Sg47yWd-0FWZn-6" target="zjfV1j-Sg47yWd-0FWZn-12" edge="1">
          <mxGeometry width="50" height="50" relative="1" as="geometry">
            <mxPoint x="400" y="630" as="sourcePoint" />
            <mxPoint x="415" y="590" as="targetPoint" />
          </mxGeometry>
        </mxCell>
        <mxCell id="zjfV1j-Sg47yWd-0FWZn-55" value="" style="endArrow=classic;html=1;rounded=0;exitX=1;exitY=0.5;exitDx=0;exitDy=0;entryX=0;entryY=0.5;entryDx=0;entryDy=0;strokeWidth=2;" parent="1" source="zjfV1j-Sg47yWd-0FWZn-8" target="zjfV1j-Sg47yWd-0FWZn-9" edge="1">
          <mxGeometry width="50" height="50" relative="1" as="geometry">
            <mxPoint x="680" y="450" as="sourcePoint" />
            <mxPoint x="730" y="400" as="targetPoint" />
          </mxGeometry>
        </mxCell>
        <mxCell id="zjfV1j-Sg47yWd-0FWZn-56" value="" style="endArrow=classic;html=1;rounded=0;entryX=0.5;entryY=0;entryDx=0;entryDy=0;exitX=0.202;exitY=1.003;exitDx=0;exitDy=0;exitPerimeter=0;strokeWidth=2;" parent="1" source="zjfV1j-Sg47yWd-0FWZn-9" target="zjfV1j-Sg47yWd-0FWZn-10" edge="1">
          <mxGeometry width="50" height="50" relative="1" as="geometry">
            <mxPoint x="622" y="470" as="sourcePoint" />
            <mxPoint x="720" y="390" as="targetPoint" />
          </mxGeometry>
        </mxCell>
        <mxCell id="zjfV1j-Sg47yWd-0FWZn-57" value="" style="endArrow=classic;html=1;rounded=0;entryX=0.491;entryY=-0.003;entryDx=0;entryDy=0;entryPerimeter=0;strokeWidth=2;" parent="1" target="zjfV1j-Sg47yWd-0FWZn-11" edge="1">
          <mxGeometry width="50" height="50" relative="1" as="geometry">
            <mxPoint x="789" y="470" as="sourcePoint" />
            <mxPoint x="760" y="510" as="targetPoint" />
          </mxGeometry>
        </mxCell>
        <mxCell id="zjfV1j-Sg47yWd-0FWZn-58" value="" style="endArrow=classic;html=1;rounded=0;entryX=0.5;entryY=0;entryDx=0;entryDy=0;exitX=0.5;exitY=1;exitDx=0;exitDy=0;strokeWidth=2;" parent="1" source="zjfV1j-Sg47yWd-0FWZn-11" target="zjfV1j-Sg47yWd-0FWZn-13" edge="1">
          <mxGeometry width="50" height="50" relative="1" as="geometry">
            <mxPoint x="580" y="440" as="sourcePoint" />
            <mxPoint x="630" y="390" as="targetPoint" />
          </mxGeometry>
        </mxCell>
        <mxCell id="zjfV1j-Sg47yWd-0FWZn-59" value="" style="endArrow=classic;html=1;rounded=0;exitX=0.5;exitY=1;exitDx=0;exitDy=0;entryX=0.825;entryY=0.022;entryDx=0;entryDy=0;entryPerimeter=0;strokeWidth=2;" parent="1" source="zjfV1j-Sg47yWd-0FWZn-10" target="zjfV1j-Sg47yWd-0FWZn-12" edge="1">
          <mxGeometry width="50" height="50" relative="1" as="geometry">
            <mxPoint x="640" y="560" as="sourcePoint" />
            <mxPoint x="622" y="601" as="targetPoint" />
          </mxGeometry>
        </mxCell>
        <mxCell id="zjfV1j-Sg47yWd-0FWZn-60" value="" style="endArrow=classic;html=1;rounded=0;exitX=1;exitY=0.5;exitDx=0;exitDy=0;strokeWidth=2;" parent="1" source="zjfV1j-Sg47yWd-0FWZn-3" edge="1">
          <mxGeometry width="50" height="50" relative="1" as="geometry">
            <mxPoint x="690" y="380" as="sourcePoint" />
            <mxPoint x="560" y="250" as="targetPoint" />
          </mxGeometry>
        </mxCell>
        <mxCell id="zjfV1j-Sg47yWd-0FWZn-61" value="" style="endArrow=classic;html=1;rounded=0;entryX=-0.001;entryY=0.363;entryDx=0;entryDy=0;entryPerimeter=0;exitX=1;exitY=0.5;exitDx=0;exitDy=0;strokeWidth=2;" parent="1" source="zjfV1j-Sg47yWd-0FWZn-7" target="zjfV1j-Sg47yWd-0FWZn-29" edge="1">
          <mxGeometry width="50" height="50" relative="1" as="geometry">
            <mxPoint x="820" y="260" as="sourcePoint" />
            <mxPoint x="870" y="210" as="targetPoint" />
          </mxGeometry>
        </mxCell>
        <mxCell id="zjfV1j-Sg47yWd-0FWZn-64" value="&lt;font style=&quot;font-size: 16px;&quot;&gt;&lt;b&gt;ReAuthentication&lt;br&gt;Service&lt;/b&gt;&lt;/font&gt;" style="rounded=0;whiteSpace=wrap;html=1;" parent="1" vertex="1">
          <mxGeometry x="-370" y="320" width="190" height="60" as="geometry" />
        </mxCell>
        <mxCell id="zjfV1j-Sg47yWd-0FWZn-66" value="" style="endArrow=classic;html=1;rounded=0;entryX=0.5;entryY=0;entryDx=0;entryDy=0;exitX=0.882;exitY=0.994;exitDx=0;exitDy=0;exitPerimeter=0;strokeWidth=2;" parent="1" source="zjfV1j-Sg47yWd-0FWZn-3" target="zjfV1j-Sg47yWd-0FWZn-5" edge="1">
          <mxGeometry width="50" height="50" relative="1" as="geometry">
            <mxPoint x="380" y="320" as="sourcePoint" />
            <mxPoint x="430" y="270" as="targetPoint" />
          </mxGeometry>
        </mxCell>
        <mxCell id="zjfV1j-Sg47yWd-0FWZn-67" value="&lt;h1 style=&quot;&quot;&gt;Client&#39;s option configuration&lt;br&gt;&lt;/h1&gt;" style="text;html=1;strokeColor=none;fillColor=none;spacing=5;spacingTop=-20;whiteSpace=wrap;overflow=hidden;rounded=0;" parent="1" vertex="1">
          <mxGeometry x="1146" y="30" width="174" height="70" as="geometry" />
        </mxCell>
        <mxCell id="zjfV1j-Sg47yWd-0FWZn-68" value="" style="endArrow=classic;html=1;rounded=0;entryX=0.498;entryY=0.01;entryDx=0;entryDy=0;entryPerimeter=0;exitX=0.116;exitY=1;exitDx=0;exitDy=0;exitPerimeter=0;strokeWidth=2;" parent="1" source="zjfV1j-Sg47yWd-0FWZn-3" target="zjfV1j-Sg47yWd-0FWZn-64" edge="1">
          <mxGeometry width="50" height="50" relative="1" as="geometry">
            <mxPoint x="-10" y="470" as="sourcePoint" />
            <mxPoint x="40" y="420" as="targetPoint" />
          </mxGeometry>
        </mxCell>
        <mxCell id="6_SXSchUUHbL2NSbWVZx-6" style="edgeStyle=orthogonalEdgeStyle;rounded=0;orthogonalLoop=1;jettySize=auto;html=1;exitX=0.5;exitY=1;exitDx=0;exitDy=0;" parent="1" source="6_SXSchUUHbL2NSbWVZx-4" target="6_SXSchUUHbL2NSbWVZx-4" edge="1">
          <mxGeometry relative="1" as="geometry" />
        </mxCell>
        <mxCell id="6_SXSchUUHbL2NSbWVZx-8" value="&lt;b&gt;&lt;font style=&quot;font-size: 16px;&quot;&gt;Client handler&lt;/font&gt;&lt;/b&gt;" style="rounded=0;whiteSpace=wrap;html=1;" parent="1" vertex="1">
          <mxGeometry x="-370" y="410" width="190" height="60" as="geometry" />
        </mxCell>
        <mxCell id="6_SXSchUUHbL2NSbWVZx-9" value="" style="endArrow=classic;html=1;rounded=0;exitX=0.5;exitY=1;exitDx=0;exitDy=0;strokeWidth=2;" parent="1" source="zjfV1j-Sg47yWd-0FWZn-64" target="6_SXSchUUHbL2NSbWVZx-8" edge="1">
          <mxGeometry width="50" height="50" relative="1" as="geometry">
            <mxPoint x="120" y="470" as="sourcePoint" />
            <mxPoint x="170" y="420" as="targetPoint" />
          </mxGeometry>
        </mxCell>
      </root>
    </mxGraphModel>
  </diagram>
</mxfile>
